<svg xmlns="http://www.w3.org/2000/svg" width="1000" height="1000" viewBox="90.5 90.5 1000 1000">
  <defs>
    <style>
      .cls-1 {
        fill: #3a58c7;
      }

      .cls-1, .cls-3 {
        fill-rule: evenodd;
      }

      .cls-2, .cls-3 {
        fill: #fff;
      }
    </style>
  </defs>
  <path id="Rounded_Rectangle_3" data-name="Rounded Rectangle 3" class="cls-1" d="M192.959,185.867H988.04a65.5,65.5,0,0,1,65.5,65.5v678.31a65.5,65.5,0,0,1-65.5,65.5H192.959a65.5,65.5,0,0,1-65.5-65.5V251.367A65.5,65.5,0,0,1,192.959,185.867Z"/>
  <circle id="klein_hoofd" data-name="klein hoofd" class="cls-2" cx="624.422" cy="510.641" r="28.047"/>
  <circle id="groot_hoofd" data-name="groot hoofd" class="cls-2" cx="834.906" cy="320.937" r="70.125"/>
  <path id="groot_lichaam" data-name="groot lichaam" class="cls-3" d="M447.835,289.833a321.353,321.353,0,0,0-102.024,85.546C304.9,427.937,261.5,518.905,282.221,623.63c7.371,37.259,30.195,93.414,80.791,150.3C456.122,878.61,596.7,927.74,741.4,932.842,647.945,871.413,561.856,789.333,517.18,695.98c-31.936-66.731-32.319-126.787-25.88-150.64a163.727,163.727,0,0,1,21.556-47.3c29.605-44.863,72.723-61.485,129.324-89.621,58.241-28.951,98.084-55.609,98.439-86.134a55.227,55.227,0,0,0-7.382-27.071c-4.344-7.552-10.477-13.916-20-20.208-19.411-12.829-45.525-18.494-51.3-19.521-21.266-3.781-41.536-5.294-56.911-4.748C549.188,252.72,493.879,265.22,447.835,289.833ZM764.9,351.044,500.65,659.879"/>
  <path id="klein_lichaam" data-name="klein lichaam" class="cls-3" d="M789.759,514.4a139.139,139.139,0,0,1,44.171,37.036c17.711,22.755,36.5,62.139,27.531,107.478-3.192,16.131-13.073,40.443-34.978,65.071-40.311,45.32-101.173,66.591-163.82,68.8,40.461-26.6,77.732-62.131,97.074-102.547,13.826-28.891,13.993-54.891,11.205-65.219a70.057,70.057,0,0,0-9.333-20.478c-13.029-19.556-33.106-28.428-56.448-38.218-20.26-8.5-39.463-17.082-42.5-32.385a25.023,25.023,0,0,1,2.843-17.278c2.313-3.878,5.459-6.381,9.356-8.679a79.875,79.875,0,0,1,22.21-8.451,122.653,122.653,0,0,1,24.639-2.056C745.88,498.336,769.825,503.748,789.759,514.4ZM652.49,540.9m114.4,133.707"/>
</svg>
