<svg xmlns="http://www.w3.org/2000/svg" width="300" height="300" viewBox="265.5 440.5 650 300">
    <defs>
        <style>
            .cls-1 {
                fill: #fbfbfb;
            }

            .cls-1,
            .cls-2 {
                fill-rule: evenodd;
            }

            .cls-2,
            .cls-3 {
                fill: #fff;
            }

        </style>
    </defs>
    <path id="moeders_voor_moeders" data-name="moeders voor moeders" class="cls-1" d="M535.34,537.415q3.448,0.311,4.6,1.415a4.465,4.465,0,0,1,1.149,3.361v27.15a2.945,2.945,0,0,1-.95,2.255,3.849,3.849,0,0,1-2.72.884h-3.139V575.8H555.15V572.48h-2.123a6.039,6.039,0,0,1-3.714-.928,3.292,3.292,0,0,1-.84-2.609V552.405a16.433,16.433,0,0,1,3.581-10.524,8.658,8.658,0,0,1,7.208-3.184,6.948,6.948,0,0,1,5.771,2.742q2.144,2.742,2.144,8.8v19.1a2.765,2.765,0,0,1-1.105,2.255,5.324,5.324,0,0,1-3.361.884h-2.388V575.8H581.46V572.48h-2.83a4.431,4.431,0,0,1-3.007-.863,3.4,3.4,0,0,1-.973-2.679V551.094a16.078,16.078,0,0,1,1.9-6.686,9.937,9.937,0,0,1,3.529-4.227,8.937,8.937,0,0,1,5.029-1.484,7.542,7.542,0,0,1,5.911,2.524q2.25,2.524,2.25,7.128v20.589a3.264,3.264,0,0,1-1.061,2.657,5.91,5.91,0,0,1-3.715.885h-2.078V575.8h20.827V572.48h-2.078a5.667,5.667,0,0,1-3.67-1.017,2.914,2.914,0,0,1-.929-2.52V548.381q0-6.985-3.62-11.408-2.826-3.36-8.478-3.361a14.106,14.106,0,0,0-7.9,2.378,22.468,22.468,0,0,0-6.579,7.179q-1.506-5.064-4.3-7.311a10.945,10.945,0,0,0-7.086-2.246,14.325,14.325,0,0,0-7.4,1.981,22.862,22.862,0,0,0-6.731,6.823,67.008,67.008,0,0,0-1.283-8.8l-11.85.752v3.051Zm88.189,1.813q-5.616,6.1-5.616,15.874,0,9.729,5.594,15.831a17.81,17.81,0,0,0,13.641,6.1,19.6,19.6,0,0,0,10.149-2.786,18.985,18.985,0,0,0,7.251-7.583,24.51,24.51,0,0,0,2.543-11.608q0-9.86-5.682-15.9a18.512,18.512,0,0,0-14.039-6.036A18.068,18.068,0,0,0,623.529,539.228Zm22.264,1.327q3.16,4.288,3.162,13.884,0,10.347-3.206,14.9a9.818,9.818,0,0,1-8.379,4.554,9.562,9.562,0,0,1-8.159-4.554q-3.162-4.554-3.161-14.415,0-9.684,3.183-14.172a9.615,9.615,0,0,1,8.137-4.489A9.955,9.955,0,0,1,645.793,540.555Zm59.072,4.554a18.687,18.687,0,0,0-6.589-8.888,17.536,17.536,0,0,0-10.391-3.1,17.81,17.81,0,0,0-13.774,6.213q-5.6,6.213-5.594,16.294,0,9.375,5.682,15.388a18.5,18.5,0,0,0,14,6.014q12.206,0,18.661-12.558l-2.875-1.238q-5.262,9.861-13.929,9.86a12.26,12.26,0,0,1-9.683-4.377q-3.317-3.891-3.538-13.354H706.5a30.426,30.426,0,0,0-1.636-10.259h0Zm-24.7-5.218a9.6,9.6,0,0,1,7.8-4.112,9.278,9.278,0,0,1,7.142,3.4,12.008,12.008,0,0,1,3.028,8.269,5.926,5.926,0,0,1-.884,3.692,3.016,3.016,0,0,1-2.476,1.083H676.83Q676.964,544,680.169,539.891Zm60.751-26.177h2.963a7.481,7.481,0,0,1,4.488,1.083,3.49,3.49,0,0,1,1.437,2.941v23.391a17.005,17.005,0,0,0-5.5-6.013,13.122,13.122,0,0,0-7.141-1.99,15.938,15.938,0,0,0-11.5,4.908q-6.368,6.279-6.367,16.8,0,9.729,4.974,15.653a15.208,15.208,0,0,0,12.05,5.926,13.275,13.275,0,0,0,7.583-2.277,19.31,19.31,0,0,0,5.9-6.788l1.062,8.446h14.15V572.48h-2.875a4.8,4.8,0,0,1-3.78-1.415q-1.262-1.415-1.261-4.731V509.646l-16.184.752v3.316Zm5.307,27.327q3.669,4.819,3.67,13.221,0,8.889-3.427,13.509t-8.247,4.621a8.667,8.667,0,0,1-7.384-4.135q-2.875-4.134-2.875-14.26,0-9.33,2.808-13.266a8.848,8.848,0,0,1,7.584-3.935,9.532,9.532,0,0,1,7.871,4.245h0Zm64.974,4.068a18.685,18.685,0,0,0-6.588-8.888,17.54,17.54,0,0,0-10.392-3.1,17.81,17.81,0,0,0-13.774,6.213q-5.594,6.213-5.593,16.294,0,9.375,5.682,15.388a18.492,18.492,0,0,0,14,6.014q12.2,0,18.66-12.558l-2.874-1.238q-5.264,9.861-13.929,9.86a12.261,12.261,0,0,1-9.684-4.377q-3.316-3.891-3.537-13.354h29.67a30.376,30.376,0,0,0-1.636-10.259h0Zm-24.7-5.218a9.6,9.6,0,0,1,7.8-4.112,9.276,9.276,0,0,1,7.141,3.4,12,12,0,0,1,3.029,8.269,5.926,5.926,0,0,1-.884,3.692,3.017,3.017,0,0,1-2.477,1.083H783.167Q783.3,544,786.505,539.891Zm36.609-2.388h3.626a4.741,4.741,0,0,1,3.67,1.393,6.359,6.359,0,0,1,1.282,4.4v26.4a2.421,2.421,0,0,1-1.061,1.967,5.082,5.082,0,0,1-3.14.818h-4.112V575.8h25.735V572.48h-5.262a6.218,6.218,0,0,1-3.626-.8,2.7,2.7,0,0,1-1.061-2.3V560.5q0-4.819,2.653-12.867a19.121,19.121,0,0,1,4.908-8.137q2.3-2.123,4.113-2.122a0.676,0.676,0,0,1,.84.663,5.215,5.215,0,0,1-.663,1.371,5.585,5.585,0,0,0-.708,2.741,5.093,5.093,0,0,0,1.216,3.582,4.144,4.144,0,0,0,3.206,1.327,4.3,4.3,0,0,0,3.383-1.548,6.384,6.384,0,0,0,1.348-4.333,7.53,7.53,0,0,0-2.012-5.506,7.176,7.176,0,0,0-5.372-2.056,10.226,10.226,0,0,0-8.313,4.245q-3.361,4.245-5.749,12.514V533.612l-14.9.752V537.5Zm47.42,22.685,0.885,16.493h2.347L877,572.967a18.313,18.313,0,0,0,11.424,4.068,15.972,15.972,0,0,0,10.958-3.8,11.907,11.907,0,0,0,4.318-9.281,11.216,11.216,0,0,0-1.992-6.739,11.625,11.625,0,0,0-5.622-4.088,63.494,63.494,0,0,0-9.568-2.087q-6.334-1.02-8.5-2.79a5.278,5.278,0,0,1-2.215-4.333,6.381,6.381,0,0,1,2.392-5.02,9.808,9.808,0,0,1,6.6-2.056,12.39,12.39,0,0,1,8.2,2.764q3.323,2.764,5.273,9.043h2.962l-1.151-14.769h-1.815l-2.924,3.095a16.485,16.485,0,0,0-10.008-3.4q-7.084,0-11.026,4.731a12.7,12.7,0,0,0-3.056,8.269,10.936,10.936,0,0,0,1.483,5.572,10.545,10.545,0,0,0,4.138,4.024q2.655,1.458,9.389,2.785a63.412,63.412,0,0,1,8.729,2.012,5.711,5.711,0,0,1,2.635,2.079,5.616,5.616,0,0,1,.953,3.25,6.571,6.571,0,0,1-2.587,5.328q-2.586,2.1-7.406,2.1a13.321,13.321,0,0,1-8.778-2.94q-3.56-2.94-6.3-10.59h-2.962Zm-340,36.872a5.039,5.039,0,0,1,2.474.512,3.72,3.72,0,0,1,1.34,1.7l10.188,22.579h1.494l9.488-21.971a4.635,4.635,0,0,1,1.492-1.934,5.171,5.171,0,0,1,2.6-.885v-1.879H548.882v1.879q3.968,0.5,3.967,2.511a2.286,2.286,0,0,1-.138.773l-6.247,14.818L539.6,599.879a2.908,2.908,0,0,1-.278-1.216,1.258,1.258,0,0,1,.705-1.147,8.433,8.433,0,0,1,3.248-.456v-1.879H530.531v1.879Zm37.928,1.161a15.764,15.764,0,0,0-.013,19.815,11.128,11.128,0,0,0,8.526,3.814,12.239,12.239,0,0,0,6.342-1.741,11.872,11.872,0,0,0,4.533-4.74,15.316,15.316,0,0,0,1.589-7.254,13.9,13.9,0,0,0-3.552-9.935,11.569,11.569,0,0,0-8.774-3.773A11.293,11.293,0,0,0,568.459,598.221Zm13.915,0.829q1.977,2.681,1.976,8.678,0,6.467-2,9.314a6.138,6.138,0,0,1-5.237,2.846,5.975,5.975,0,0,1-5.1-2.846q-1.977-2.847-1.976-9.01,0-6.053,1.99-8.858a6.009,6.009,0,0,1,5.085-2.8A6.22,6.22,0,0,1,582.374,599.05Zm17.215-.829a15.762,15.762,0,0,0-.014,19.815,11.131,11.131,0,0,0,8.526,3.814,12.24,12.24,0,0,0,6.343-1.741,11.862,11.862,0,0,0,4.532-4.74,15.3,15.3,0,0,0,1.589-7.254,13.9,13.9,0,0,0-3.551-9.935,11.57,11.57,0,0,0-8.774-3.773A11.293,11.293,0,0,0,599.589,598.221ZM613.5,599.05q1.976,2.681,1.976,8.678,0,6.467-2,9.314a6.138,6.138,0,0,1-5.237,2.846,5.975,5.975,0,0,1-5.1-2.846q-1.977-2.847-1.976-9.01,0-6.053,1.989-8.858a6.012,6.012,0,0,1,5.086-2.8A6.22,6.22,0,0,1,613.5,599.05Zm13.235-1.907h2.267a2.958,2.958,0,0,1,2.293.871,3.966,3.966,0,0,1,.8,2.75v16.5a1.511,1.511,0,0,1-.663,1.229,3.174,3.174,0,0,1-1.963.512h-2.57v2.072H642.99V619H639.7a3.882,3.882,0,0,1-2.266-.5,1.685,1.685,0,0,1-.663-1.437v-5.555a27.3,27.3,0,0,1,1.658-8.042,11.938,11.938,0,0,1,3.067-5.085,4.065,4.065,0,0,1,2.571-1.327,0.423,0.423,0,0,1,.525.415,3.293,3.293,0,0,1-.415.857,3.487,3.487,0,0,0-.442,1.713,3.184,3.184,0,0,0,.76,2.239,2.59,2.59,0,0,0,2,.829,2.685,2.685,0,0,0,2.114-.968,3.987,3.987,0,0,0,.843-2.708A4.71,4.71,0,0,0,648.2,596a4.487,4.487,0,0,0-3.358-1.285,6.393,6.393,0,0,0-5.2,2.653,22.992,22.992,0,0,0-3.593,7.821V594.711l-9.314.47v1.962Zm-91.4,48.943q3.448,0.311,4.6,1.415a4.468,4.468,0,0,1,1.149,3.361v27.15a2.945,2.945,0,0,1-.95,2.255,3.849,3.849,0,0,1-2.72.885h-3.139v3.316H555.15v-3.316h-2.123a6.038,6.038,0,0,1-3.714-.929,3.292,3.292,0,0,1-.84-2.609V661.077a16.435,16.435,0,0,1,3.581-10.525,8.657,8.657,0,0,1,7.208-3.183,6.95,6.95,0,0,1,5.771,2.741q2.144,2.742,2.144,8.8v19.1a2.765,2.765,0,0,1-1.105,2.255,5.324,5.324,0,0,1-3.361.885h-2.388v3.316H581.46v-3.316h-2.83a4.436,4.436,0,0,1-3.007-.863,3.4,3.4,0,0,1-.973-2.68V659.766a16.071,16.071,0,0,1,1.9-6.686,9.94,9.94,0,0,1,3.529-4.228,8.936,8.936,0,0,1,5.029-1.483,7.539,7.539,0,0,1,5.911,2.524q2.25,2.524,2.25,7.128v20.588a3.265,3.265,0,0,1-1.061,2.658,5.91,5.91,0,0,1-3.715.885h-2.078v3.316h20.827v-3.316h-2.078a5.673,5.673,0,0,1-3.67-1.017,2.917,2.917,0,0,1-.929-2.521V657.053q0-6.987-3.62-11.409-2.826-3.36-8.478-3.36a14.106,14.106,0,0,0-7.9,2.378,22.453,22.453,0,0,0-6.579,7.178q-1.506-5.062-4.3-7.31a10.945,10.945,0,0,0-7.086-2.246,14.324,14.324,0,0,0-7.4,1.98,22.862,22.862,0,0,0-6.731,6.823,66.97,66.97,0,0,0-1.283-8.8l-11.85.751v3.051Zm88.189,1.813q-5.616,6.1-5.616,15.875,0,9.728,5.594,15.83a17.81,17.81,0,0,0,13.641,6.1A19.586,19.586,0,0,0,647.3,682.92a18.985,18.985,0,0,0,7.251-7.583,24.5,24.5,0,0,0,2.543-11.607q0-9.861-5.682-15.9A18.512,18.512,0,0,0,637.37,641.8,18.068,18.068,0,0,0,623.529,647.9Zm22.264,1.327q3.16,4.29,3.162,13.885,0,10.347-3.206,14.9a9.816,9.816,0,0,1-8.379,4.555,9.561,9.561,0,0,1-8.159-4.555q-3.162-4.554-3.161-14.415,0-9.684,3.183-14.172a9.614,9.614,0,0,1,8.137-4.488A9.954,9.954,0,0,1,645.793,649.226Zm59.072,4.554a18.679,18.679,0,0,0-6.589-8.887,17.53,17.53,0,0,0-10.391-3.1,17.813,17.813,0,0,0-13.774,6.213q-5.6,6.213-5.594,16.294,0,9.375,5.682,15.388a18.492,18.492,0,0,0,14,6.014q12.206,0,18.661-12.558l-2.875-1.238q-5.262,9.861-13.929,9.861a12.258,12.258,0,0,1-9.683-4.378q-3.317-3.891-3.538-13.354H706.5a30.426,30.426,0,0,0-1.636-10.259h0Zm-24.7-5.217a9.6,9.6,0,0,1,7.8-4.113,9.278,9.278,0,0,1,7.142,3.4,12.01,12.01,0,0,1,3.028,8.269,5.924,5.924,0,0,1-.884,3.692,3.017,3.017,0,0,1-2.476,1.084H676.83Q676.964,652.676,680.169,648.563Zm60.751-26.178h2.963a7.48,7.48,0,0,1,4.488,1.084,3.487,3.487,0,0,1,1.437,2.94V649.8a17.017,17.017,0,0,0-5.5-6.014,13.122,13.122,0,0,0-7.141-1.99,15.938,15.938,0,0,0-11.5,4.908q-6.368,6.28-6.367,16.8,0,9.727,4.974,15.653a15.207,15.207,0,0,0,12.05,5.925,13.267,13.267,0,0,0,7.583-2.277,19.31,19.31,0,0,0,5.9-6.788l1.062,8.446h14.15v-3.316h-2.875a4.8,4.8,0,0,1-3.78-1.415q-1.262-1.414-1.261-4.732V618.317l-16.184.752v3.316Zm5.307,27.327q3.669,4.821,3.67,13.222,0,8.888-3.427,13.508t-8.247,4.621a8.666,8.666,0,0,1-7.384-4.134q-2.875-4.134-2.875-14.261,0-9.329,2.808-13.265a8.846,8.846,0,0,1,7.584-3.936,9.532,9.532,0,0,1,7.871,4.245h0ZM811.2,653.78a18.678,18.678,0,0,0-6.588-8.887,17.533,17.533,0,0,0-10.392-3.1,17.813,17.813,0,0,0-13.774,6.213q-5.594,6.213-5.593,16.294,0,9.375,5.682,15.388a18.489,18.489,0,0,0,14,6.014q12.2,0,18.66-12.558l-2.874-1.238q-5.264,9.861-13.929,9.861a12.259,12.259,0,0,1-9.684-4.378q-3.316-3.891-3.537-13.354h29.67A30.376,30.376,0,0,0,811.2,653.78h0Zm-24.7-5.217a9.6,9.6,0,0,1,7.8-4.113,9.276,9.276,0,0,1,7.141,3.4,12.006,12.006,0,0,1,3.029,8.269,5.924,5.924,0,0,1-.884,3.692,3.017,3.017,0,0,1-2.477,1.084H783.167Q783.3,652.676,786.505,648.563Zm36.609-2.388h3.626a4.738,4.738,0,0,1,3.67,1.393,6.355,6.355,0,0,1,1.282,4.4v26.4a2.422,2.422,0,0,1-1.061,1.968,5.088,5.088,0,0,1-3.14.818h-4.112v3.316h25.735v-3.316h-5.262a6.226,6.226,0,0,1-3.626-.8,2.7,2.7,0,0,1-1.061-2.3v-8.888q0-4.818,2.653-12.867a19.117,19.117,0,0,1,4.908-8.136q2.3-2.122,4.113-2.123a0.676,0.676,0,0,1,.84.663,5.215,5.215,0,0,1-.663,1.371,5.589,5.589,0,0,0-.708,2.742,5.093,5.093,0,0,0,1.216,3.581,4.141,4.141,0,0,0,3.206,1.327,4.3,4.3,0,0,0,3.383-1.548,6.382,6.382,0,0,0,1.348-4.333,7.53,7.53,0,0,0-2.012-5.5,7.172,7.172,0,0,0-5.372-2.056,10.226,10.226,0,0,0-8.313,4.245q-3.361,4.245-5.749,12.513V642.284l-14.9.751v3.14Zm47.42,22.684,0.885,16.493h2.347L877,681.638a18.307,18.307,0,0,0,11.424,4.068,15.967,15.967,0,0,0,10.958-3.8,11.907,11.907,0,0,0,4.318-9.281,11.216,11.216,0,0,0-1.992-6.739,11.625,11.625,0,0,0-5.622-4.088,63.668,63.668,0,0,0-9.568-2.086q-6.334-1.022-8.5-2.79a5.281,5.281,0,0,1-2.215-4.334,6.379,6.379,0,0,1,2.392-5.019,9.8,9.8,0,0,1,6.6-2.056,12.389,12.389,0,0,1,8.2,2.763q3.323,2.765,5.273,9.043h2.962l-1.151-14.769h-1.815l-2.924,3.1a16.491,16.491,0,0,0-10.008-3.4q-7.084,0-11.026,4.732a12.7,12.7,0,0,0-3.056,8.269,10.93,10.93,0,0,0,1.483,5.571,10.545,10.545,0,0,0,4.138,4.024q2.655,1.459,9.389,2.786a63.094,63.094,0,0,1,8.729,2.012,5.7,5.7,0,0,1,2.635,2.078,5.618,5.618,0,0,1,.953,3.25,6.57,6.57,0,0,1-2.587,5.328q-2.586,2.1-7.406,2.1a13.322,13.322,0,0,1-8.778-2.941q-3.56-2.94-6.3-10.59h-2.962Z" />
    <path id="VZW" class="cls-1" d="M813.642,499.465l0.854-.006a2.9,2.9,0,0,1,1.72.44,3.659,3.659,0,0,1,1.123,1.616l9.445,23.419,1.292-.009,7.969-22.029a7.286,7.286,0,0,1,1.571-2.764,2.6,2.6,0,0,1,1.762-.846l0.782-.006-0.009-1.332-9.7.067,0.009,1.333,1.794-.013a2.212,2.212,0,0,1,1.594.54,2.036,2.036,0,0,1,.588,1.541,3.643,3.643,0,0,1-.169,1.209l-6,16.845-7.04-17.554-0.145-.372a2.958,2.958,0,0,1-.327-1.081,0.877,0.877,0,0,1,.421-0.767,3.185,3.185,0,0,1,1.614-.3l1.919-.013-0.01-1.332-11.065.076Zm30.469,7.55,1.244-.009a13.121,13.121,0,0,1,1.442-4.779,5.667,5.667,0,0,1,2.7-2.5,9.2,9.2,0,0,1,3.445-.539l5.422-.037-15,23.853,0.008,1.19,19-.133,0.411-9.861-1.243.009a18.385,18.385,0,0,1-1.73,5.35,6.285,6.285,0,0,1-2.515,2.406,8.8,8.8,0,0,1-4.008.827l-5.7.04,14.845-23.71-0.01-1.332-17.886.124Zm22.44-7.918a2.925,2.925,0,0,1,1.789.422,3.788,3.788,0,0,1,1.017,1.8l7.56,23.27,1.33-.009,5.631-19.346,6.176,19.264,1.264-.009,6.323-21.626a9.241,9.241,0,0,1,.934-2.369,3.5,3.5,0,0,1,1.1-1.1,4.542,4.542,0,0,1,1.72-.536l-0.009-1.332-8.241.057,0.009,1.333,0.816-.006a2.163,2.163,0,0,1,1.626.548,2.446,2.446,0,0,1,.553,1.746,5.67,5.67,0,0,1-.255,1.671l-4.376,14.969-5.561-17.226a2.206,2.206,0,0,1-.111-0.692,0.773,0.773,0,0,1,.439-0.723,4.879,4.879,0,0,1,1.932-.253l1.136-.008-0.009-1.332-10.959.076,0.009,1.332,1.6-.011a2.46,2.46,0,0,1,1.73.431A10.559,10.559,0,0,1,883,502.493l-4.586,15.438-5.463-16.641-0.109-.336a3.289,3.289,0,0,1-.273-1.011,0.719,0.719,0,0,1,.376-0.678,4.441,4.441,0,0,1,1.761-.225l0.619,0-0.009-1.332-8.775.061Z" />
    <path id="klein_hoofd" data-name="klein hoofd" class="cls-2" d="M415.782,546.138a11.4,11.4,0,1,1-11.4,11.4A11.4,11.4,0,0,1,415.782,546.138Z" />
    <circle id="groot_hoofd" data-name="groot hoofd" class="cls-3" cx="501.312" cy="480.453" r="28.5" />
    <path id="groot_lichaam" data-name="groot lichaam" class="cls-2" d="M344.029,467.814a130.587,130.587,0,0,0-41.457,34.76c-16.622,21.357-34.257,58.321-25.839,100.875,3,15.14,12.269,37.959,32.829,61.073,37.834,42.537,94.957,62.5,153.756,64.574-37.976-24.962-72.957-58.314-91.111-96.248-12.977-27.115-13.133-51.518-10.516-61.211a66.515,66.515,0,0,1,8.759-19.22C382.48,534.187,400,527.433,423,516c23.666-11.764,39.856-22.6,40-35a22.457,22.457,0,0,0-3-11,24.19,24.19,0,0,0-8.126-8.211c-7.887-5.213-18.5-7.515-20.845-7.932a115.043,115.043,0,0,0-23.125-1.93C385.213,452.733,362.739,457.812,344.029,467.814Zm128.837,24.872M365.49,618.179" />
    <path id="klein_lichaam" data-name="klein lichaam" class="cls-2" d="M482.968,559.066a56.538,56.538,0,0,1,17.948,15.049c7.2,9.247,14.832,25.25,11.187,43.673-1.3,6.555-5.312,16.434-14.213,26.441-16.38,18.416-41.111,27.059-66.567,27.956,16.441-10.806,31.586-25.246,39.445-41.669,5.619-11.739,5.686-22.3,4.553-26.5a28.49,28.49,0,0,0-3.792-8.321c-5.294-7.947-13.452-11.552-22.937-15.53-8.233-3.453-16.036-6.941-17.272-13.159a10.168,10.168,0,0,1,1.155-7.021,10.034,10.034,0,0,1,3.8-3.526,32.41,32.41,0,0,1,9.025-3.434,49.777,49.777,0,0,1,10.012-.836C465.137,552.537,474.867,554.736,482.968,559.066Zm-55.779,10.768,46.487,54.331" />
</svg>
